<mxfile host="app.diagrams.net" agent="Mozilla/5.0 (X11; Ubuntu; Linux x86_64; rv:135.0) Gecko/20100101 Firefox/135.0" version="26.0.16">
  <diagram name="Page-1" id="yS0AQmSFW5rC3qNJ6PCO">
    <mxGraphModel dx="1362" dy="795" grid="1" gridSize="10" guides="1" tooltips="1" connect="1" arrows="1" fold="1" page="1" pageScale="1" pageWidth="850" pageHeight="1100" math="0" shadow="0">
      <root>
        <mxCell id="0" />
        <mxCell id="1" parent="0" />
        <mxCell id="kBq6-Se6D-U07wVi12q6-2" value="" style="shape=image;verticalLabelPosition=bottom;labelBackgroundColor=default;verticalAlign=top;aspect=fixed;imageAspect=0;image=data:image/jpeg,/9j/4AAQSkZJRgABAQAAAQABAAD/2wCEAAkGBwgHCA0NDQ0IDQ0NCA0HDQ0HBw8IDQ0NFREWFhURFRUYHiggGBolGxUVITEhJSkrNy4uFx8zODMtNygtLisBCgoKDg0OFQ0PFSsZFRkrKysrKysrKystKy0rKys3KystKysrKysrKy0rNy0rLS0rLTArLS0tKysrKysrLSstK//AABEIAMgA/QMBEQACEQEDEQH/xAAbAAEBAQEBAQEBAAAAAAAAAAABAgAFBAMGB//EADQQAQEAAQIEAgYJBAMAAAAAAAABEQIEAwUhUWGREzFBUnGjEhQVIzOBkpOhIjJysUKC0f/EABkBAQADAQEAAAAAAAAAAAAAAAACAwQBBf/EACMRAQACAgIDAAIDAQAAAAAAAAABAgMREiEEMTIUURMiYUH/2gAMAwEAAhEDEQA/AP49AVAMAgQIECBA4BsAQbAHANgGBgbADANgGwAwAAAAAABQACgASCoCoBgEDAIKBgIHAHAHANgDgGwDA2AbADANgBgAAwDAASAAAAFBNAAqAqAYBgGAoDAIECBwDYA4BsA2AOAbADANgBgGwAwAAAKABICgKABNAAqAqAYBgGAoDAIECBwBwDAcA2AbANgGwAwDYAYAYAAAACgmgKAoCgmgAVAMBUAwDAVAMAwDIBAgQOAOAdDl+wnFn0tfq9kWVoy58/H+sOjq5dwLp/s0/lMJ8IZY8i/7cfe7W7fX066b6vDwVWrpvxZecf682EVowAwAAAAFAAKCaAoCgmgKAAwFQDAVAMAwFQDAMBUAgQbAGQH6LZWTRp8JF9Xl5o7l0uNxuFq4WmSdZMVNncPm2Lw/ziu7d43UuPhS3NgAAAAmgKAoCgmgKCaAoCgkFQDAVAMBUAwFQDAIKAwCBAg7e0udE+EXVefljuXoucJKdPBzGfd34xXZq8f25eFbYAAAACQFAUE0BQTQFAUE0ABgKgGAqAYCoBgKgGAYCoBgEDAdnZdeHPhF1WDN9S9aSh4OYT7u/krs1YPpylbYAFAUE0BQFBNAUE0BQTQFBNAUFQDAVAMBUAwFQDAMBUAwFQDAVAdbYfhT4LasOb3L2ps7w8wn3d/JXZpwfTlVW2pAUBQTQFBNAUE0BQTQFBNAUEgqAYCoBgKgGAqAYCoBgKgGAqAqA6vL/wAOeS2rHn+nu9ibM8XMPw7+X+1dmjB9OTVbamgmgKCaAoJoCgmgKCaAoJoCgkFQDAVAMBUAwFQDAVAMBUAwFQDAdTl1/o/OrKsef29+eixmePmH4d+E/wBoWaMH05FVNooJoCgmgKCaAoJoCgmgKCaAoJBUAwFQDAVAMBUAwDAVAMBUAwFQHR5bf6b/AJLKsnkR26M9SxkePmH4d+EQs04PqHIVNoAUE0BQFBNAUE0BQTQFBNAUEgYCoBgKgGAqAYCoBgEFQCBAwHQ5b6r/AJJ0ZvIdPPRYxPHzC/davhEbNGD6hyFTcAFAAmgKAoJoCgmgKCaAoJoADAMBUAwFQDAMBUAwDAVAIEDKD3ctvW/ksoz5/TqS9FjC8fML93fhP9oWaMH1Dk5VNwAAAAJoCgATQFBNAUE0BQANAVAMBUAwDAVAMAwCBAgQMB7eXX+u/DKdFGf06svRawS82/xeHq/xRsvw/UOMpbwDZAAkBQFAUE0BQFBNAUE0BQMAwFQDAMAwFQCBAwCCp1B0dpyzVxJnXmeEUXz66hLi905Xwe381T/Pb9u6Tr2mjbXTdMszfo32r/HyTa2pUeRH9X20+puebL5cXTOJZpvqtmlXknVZlfh+oP2Xwfd/mvO/nt+3paRxOVcKzpLPhXYz2NOVutrxNvevWeyxppeLIzDzJuAAAAAKCaAoCgmgAAGS9r5O6DJe18nNBkva+RoVi9r5O6DJfHyNBxe18jQZL2vk5oVi9r5GgyXtfI0HF8fI0HF7Xyd0Pfynb+k4n0r/AMek+KjPbUaSh+j4PDkjz5lN6tG31ap0iOwcXY6uLpssv/l7pY8s0tyhG9ItGpeLVy/daLj6N1ezOmx6lPMxzHc6edfxrxPXb77flvE06vpap19knXDJ5HlReONfTThwTXu3t6LttfZj5NT58TgXROsSiRz97t5xNGqX1WVbjvqduTD8vr0atGqzr0tnqelHcbVpxe18gGL4+RoGL4+RoGL4+RoTZfHyNAsvj5GgYvj5O6Bi+Pk5oTZfHyd0Cy+PkaBi+PkaHcm82XafrbOdENSr65su0/Wc6GpM3mx7T9Zzodqm82Pb5hzodmbzYe78w50Oz9c2Hu/MOdDtU3mw935jnOh2ZveX+78050OzN7y/3fmnOh2r67y/3fmnOh2frvL/AHPnHOhqX123F4PF128OY09Jj6X0urzPNmJtuFtPTq8C9XnSm7W118OcOZsQdfb0vC76TQfS8LvpBvS8LvpNOD0vC76TTrncw16dWrpZ6vY7A5G4vRZVxzJu9lo6a9OdUtls4v0Xu4LVjHET7U29t9d5f7nzlvOiPY+u8v8Ad+a7zodpu92Hu/NOdDUi73Ye7P3TnQ1Iu92Huz9050NSLvNh7s/cOdDUpu82PafuHOhqRd5se0/cOdDUpu82PafrOdDUi7zZdp+s50NSm7zZdp+s50NS4UYk1QDAIECBAgQIHIPXy7dfV+J1/t1dL4XuryU5R/rsP0vA481T1+x59q6T29M4/T1/yr4ut6e9/wCTQ3p73/k0N6e9/wCTQ3p73vmaE6+N4u6HM5jvNPC0W56+qTxX4sczLky/OatV1W3vcvQVpAAAAAAAAAATQANAVAMAgQIECByByDZAyg9W233F4HT1ztqqu+Otndvbp5xPbp1eeVM+P/ruz9sae2pz8ef2cj9sae2o/Hk5N9sae2o/Hk5D7Y09tR+PJyfPic31Wf06b/2qUePH/Tbncbja+Nqzqua0VrFY1Dm3zy642QAAAAAZAAAAJAA0AgoCBgECDAcgcgcg2QOQbINkGBsg2QbIDINkBkBkGAAAAAACQAAGgECBAgQIECByDZA5Bsg2QbINkGyDZBsg2QGQbIDIAAAAAAAAAABgIECBAgcgcg2QOQbIEGyByDZBsg2QbIDINkBkGyAyDZAAAAAAAAAAYCBAgQYDkDkDkGyByDZA5Bsg2QYGBsg2QGQbIDINkBkADAMgAAAAAAAQMA5A5A5A5BgOQOQbIHINkGyDAwMDZBsgMg2QbIDIDIMAyAyAyDZAAAAP/9k=;" vertex="1" parent="1">
          <mxGeometry x="130" y="180.95" width="618.65" height="489.05" as="geometry" />
        </mxCell>
        <mxCell id="kBq6-Se6D-U07wVi12q6-3" value="" style="endArrow=none;html=1;rounded=0;strokeWidth=5;fillColor=#fff2cc;strokeColor=#d6b656;" edge="1" parent="1">
          <mxGeometry width="50" height="50" relative="1" as="geometry">
            <mxPoint x="200" y="180" as="sourcePoint" />
            <mxPoint x="200" y="670" as="targetPoint" />
          </mxGeometry>
        </mxCell>
        <mxCell id="kBq6-Se6D-U07wVi12q6-4" value="" style="endArrow=none;html=1;rounded=0;strokeWidth=5;fillColor=#fff2cc;strokeColor=#d6b656;" edge="1" parent="1">
          <mxGeometry width="50" height="50" relative="1" as="geometry">
            <mxPoint x="680" y="180" as="sourcePoint" />
            <mxPoint x="680" y="670" as="targetPoint" />
          </mxGeometry>
        </mxCell>
      </root>
    </mxGraphModel>
  </diagram>
</mxfile>
